<svg width="30" height="30" viewBox="0 0 30 30" fill="none" xmlns="http://www.w3.org/2000/svg">
<path fill-rule="evenodd" clip-rule="evenodd" d="M10.4175 0.669922C8.76655 0.669922 7.18327 1.32578 6.01588 2.49321L0.382812 8.12645V10.705C0.382812 12.5267 1.1653 14.1657 2.4125 15.3041C1.1653 16.4424 0.382812 18.0814 0.382812 19.9031V22.4817L6.01588 28.1149C7.18327 29.2824 8.76655 29.9382 10.4175 29.9382C12.2392 29.9382 13.8781 29.1557 15.0164 27.9084C16.1548 29.1557 17.7937 29.9382 19.6153 29.9382C21.2663 29.9382 22.8496 29.2824 24.017 28.1149L29.65 22.4817V19.9031C29.65 18.0814 28.8676 16.4424 27.6203 15.3041C28.8676 14.1657 29.65 12.5267 29.65 10.705V8.12645L24.017 2.49321C22.8496 1.32578 21.2663 0.669922 19.6153 0.669922C17.7937 0.669922 16.1548 1.45244 15.0164 2.69968C13.8781 1.45244 12.2392 0.669922 10.4175 0.669922ZM19.23 15.3041C19.1599 15.24 19.091 15.1743 19.0235 15.1068L15.0164 11.0995L11.0093 15.1068C10.9418 15.1743 10.873 15.24 10.8028 15.3041C10.873 15.3681 10.9418 15.4339 11.0093 15.5013L15.0164 19.5086L19.0235 15.5013C19.091 15.4339 19.1599 15.3681 19.23 15.3041ZM16.6424 22.4817V23.7131C16.6424 25.3551 17.9734 26.6862 19.6153 26.6862C20.4038 26.6862 21.16 26.373 21.7175 25.8154L26.3981 21.1346V19.9031C26.3981 18.2612 25.0671 16.9301 23.4252 16.9301C22.6367 16.9301 21.8805 17.2433 21.323 17.8009L16.6424 22.4817ZM13.3905 22.4817L8.70985 17.8009C8.15231 17.2433 7.39614 16.9301 6.60767 16.9301C4.96576 16.9301 3.63472 18.2612 3.63472 19.9031V21.1346L8.31533 25.8154C8.87287 26.373 9.62906 26.6862 10.4175 26.6862C12.0594 26.6862 13.3905 25.3551 13.3905 23.7131V22.4817ZM13.3905 6.89501V8.12645L8.70985 12.8073C8.15231 13.3648 7.39614 13.6781 6.60767 13.6781C4.96576 13.6781 3.63472 12.3469 3.63472 10.705V9.47352L8.31533 4.79274C8.87287 4.23519 9.62906 3.92196 10.4175 3.92196C12.0594 3.92196 13.3905 5.25303 13.3905 6.89501ZM21.323 12.8073L16.6424 8.12645V6.89501C16.6424 5.25303 17.9734 3.92196 19.6153 3.92196C20.4038 3.92196 21.16 4.23519 21.7175 4.79274L26.3981 9.47352V10.705C26.3981 12.3469 25.0671 13.6781 23.4252 13.6781C22.6367 13.6781 21.8805 13.3648 21.323 12.8073Z" fill="#282828"/>
</svg>
