<svg width="16" height="13" viewBox="0 0 16 13" fill="none" xmlns="http://www.w3.org/2000/svg">
<path fill-rule="evenodd" clip-rule="evenodd" d="M2.28727 2.82653C2.41221 2.5861 2.66353 2.42188 2.9532 2.42188H13.4532C13.7429 2.42188 13.9942 2.5861 14.1191 2.82653L8.20321 6.77049L2.28727 2.82653ZM0.70325 3.1575C0.7031 3.16571 0.703085 3.17393 0.703205 3.18213V10.6719C0.703205 11.9145 1.71056 12.9219 2.9532 12.9219H13.4532C14.6958 12.9219 15.7032 11.9145 15.7032 10.6719V3.18215M14.2032 4.57326V10.6719C14.2032 11.0861 13.8674 11.4219 13.4532 11.4219H2.9532C2.53899 11.4219 2.2032 11.0861 2.2032 10.6719V4.57326L7.78718 8.29591C8.0391 8.46386 8.36731 8.46386 8.61923 8.29591L14.2032 4.57326ZM15.7032 3.15748C15.6954 1.92146 14.691 0.921875 13.4532 0.921875H2.9532C1.71536 0.921875 0.710983 1.92147 0.70325 3.1575" fill="#EAECF0"/>
</svg>
