<svg width="14" height="14" viewBox="0 0 14 14" fill="none" xmlns="http://www.w3.org/2000/svg">
<path fill-rule="evenodd" clip-rule="evenodd" d="M4.24219 1.71094C2.99955 1.71094 1.99219 2.7183 1.99219 3.96094V9.96094C1.99219 11.2036 2.99955 12.2109 4.24219 12.2109H10.2422C11.4848 12.2109 12.4922 11.2036 12.4922 9.96094V3.96094C12.4922 2.7183 11.4848 1.71094 10.2422 1.71094H4.24219ZM0.492188 3.96094C0.492188 1.88987 2.17112 0.210938 4.24219 0.210938H10.2422C12.3133 0.210938 13.9922 1.88987 13.9922 3.96094V9.96094C13.9922 12.032 12.3133 13.7109 10.2422 13.7109H4.24219C2.17112 13.7109 0.492188 12.032 0.492188 9.96094V3.96094ZM7.24219 5.46094C6.41376 5.46094 5.74219 6.13251 5.74219 6.96094C5.74219 7.78937 6.41376 8.46094 7.24219 8.46094C8.07062 8.46094 8.74219 7.78937 8.74219 6.96094C8.74219 6.13251 8.07062 5.46094 7.24219 5.46094ZM4.24219 6.96094C4.24219 5.30408 5.58533 3.96094 7.24219 3.96094C8.89904 3.96094 10.2422 5.30408 10.2422 6.96094C10.2422 8.61779 8.89904 9.96094 7.24219 9.96094C5.58533 9.96094 4.24219 8.61779 4.24219 6.96094ZM11.3672 3.58594C11.3672 3.17172 11.0314 2.83594 10.6172 2.83594C10.203 2.83594 9.86719 3.17172 9.86719 3.58594V3.58669C9.86719 4.0009 10.203 4.33669 10.6172 4.33669C11.0314 4.33669 11.3672 4.0009 11.3672 3.58669V3.58594Z" fill="#EAECF0"/>
</svg>
