<svg width="17" height="14" viewBox="0 0 17 14" fill="none" xmlns="http://www.w3.org/2000/svg">
<path d="M16.2266 0.929629C15.4766 1.29713 14.7416 1.44638 13.9766 1.67213C13.1358 0.723379 11.8893 0.670879 10.6916 1.11938C9.49381 1.56788 8.70931 2.66438 8.72656 3.92213V4.67213C6.29281 4.73438 4.12531 3.62588 2.72656 1.67213C2.72656 1.67213 -0.409938 7.24688 5.72656 9.92213C4.32256 10.8574 2.92231 11.4881 1.22656 11.4221C3.70756 12.7744 6.41131 13.2394 8.75206 12.5599C11.4371 11.7799 13.6436 9.76763 14.4903 6.75338C14.7429 5.83663 14.8683 4.88952 14.8631 3.93863C14.8616 3.75188 15.9956 1.85963 16.2266 0.928879V0.929629Z" stroke="#EAECF0" stroke-width="1.5" stroke-linecap="round" stroke-linejoin="round"/>
</svg>
